<svg width="113" height="16" viewBox="0 0 113 16" fill="none" xmlns="http://www.w3.org/2000/svg">
<path d="M107.143 15.036C106.023 15.036 104.952 14.868 103.93 14.532C102.908 14.182 102.103 13.734 101.515 13.188L102.292 11.55C102.852 12.04 103.566 12.446 104.434 12.768C105.302 13.09 106.205 13.251 107.143 13.251C107.997 13.251 108.69 13.153 109.222 12.957C109.754 12.761 110.146 12.495 110.398 12.159C110.65 11.809 110.776 11.417 110.776 10.983C110.776 10.479 110.608 10.073 110.272 9.765C109.95 9.457 109.523 9.212 108.991 9.03C108.473 8.834 107.899 8.666 107.269 8.526C106.639 8.386 106.002 8.225 105.358 8.043C104.728 7.847 104.147 7.602 103.615 7.308C103.097 7.014 102.677 6.622 102.355 6.132C102.033 5.628 101.872 4.984 101.872 4.2C101.872 3.444 102.068 2.751 102.46 2.121C102.866 1.477 103.482 0.965999 104.308 0.588C105.148 0.196 106.212 0 107.5 0C108.354 0 109.201 0.112 110.041 0.335999C110.881 0.559999 111.609 0.881999 112.225 1.302L111.532 2.982C110.902 2.562 110.237 2.261 109.537 2.079C108.837 1.883 108.158 1.785 107.5 1.785C106.674 1.785 105.995 1.89 105.463 2.1C104.931 2.31 104.539 2.59 104.287 2.94C104.049 3.29 103.93 3.682 103.93 4.116C103.93 4.634 104.091 5.047 104.413 5.355C104.749 5.663 105.176 5.908 105.694 6.09C106.226 6.272 106.807 6.44 107.437 6.594C108.067 6.734 108.697 6.895 109.327 7.077C109.971 7.259 110.552 7.497 111.07 7.791C111.602 8.085 112.029 8.477 112.351 8.967C112.673 9.457 112.834 10.087 112.834 10.857C112.834 11.599 112.631 12.292 112.225 12.936C111.819 13.566 111.189 14.077 110.335 14.469C109.495 14.847 108.431 15.036 107.143 15.036Z" fill="#102045"/>
<path d="M91.117 14.868V1.995H86.077V0.167999H98.236V1.995H93.196V14.868H91.117Z" fill="#102045"/>
<path d="M70.6253 14.868V0.167999H76.3583C77.6463 0.167999 78.7453 0.370999 79.6553 0.777C80.5653 1.183 81.2653 1.771 81.7553 2.541C82.2453 3.311 82.4903 4.228 82.4903 5.292C82.4903 6.356 82.2453 7.273 81.7553 8.043C81.2653 8.799 80.5653 9.38 79.6553 9.786C78.7453 10.192 77.6463 10.395 76.3583 10.395H71.7803L72.7253 9.429V14.868H70.6253ZM80.4533 14.868L76.7153 9.534H78.9623L82.7423 14.868H80.4533ZM72.7253 9.639L71.7803 8.61H76.2953C77.6393 8.61 78.6543 8.323 79.3403 7.749C80.0403 7.161 80.3903 6.342 80.3903 5.292C80.3903 4.242 80.0403 3.43 79.3403 2.856C78.6543 2.282 77.6393 1.995 76.2953 1.995H71.7803L72.7253 0.944999V9.639Z" fill="#102045"/>
<path d="M61.6044 14.868V0.167999H63.7044V14.868H61.6044Z" fill="#102045"/>
<path d="M52.5844 0.167999H54.6844V14.868H52.5844V0.167999ZM44.1424 14.868H42.0424V0.167999H44.1424V14.868ZM52.7734 8.316H43.9324V6.489H52.7734V8.316Z" fill="#102045"/>
<path d="M30.7634 15.036C29.6434 15.036 28.5724 14.868 27.5504 14.532C26.5284 14.182 25.7234 13.734 25.1354 13.188L25.9124 11.55C26.4724 12.04 27.1864 12.446 28.0544 12.768C28.9224 13.09 29.8254 13.251 30.7634 13.251C31.6174 13.251 32.3104 13.153 32.8424 12.957C33.3744 12.761 33.7664 12.495 34.0184 12.159C34.2704 11.809 34.3964 11.417 34.3964 10.983C34.3964 10.479 34.2284 10.073 33.8924 9.765C33.5704 9.457 33.1434 9.212 32.6114 9.03C32.0934 8.834 31.5194 8.666 30.8894 8.526C30.2594 8.386 29.6224 8.225 28.9784 8.043C28.3484 7.847 27.7674 7.602 27.2354 7.308C26.7174 7.014 26.2974 6.622 25.9754 6.132C25.6534 5.628 25.4924 4.984 25.4924 4.2C25.4924 3.444 25.6884 2.751 26.0804 2.121C26.4864 1.477 27.1024 0.965999 27.9284 0.588C28.7684 0.196 29.8324 0 31.1204 0C31.9744 0 32.8214 0.112 33.6614 0.335999C34.5014 0.559999 35.2294 0.881999 35.8454 1.302L35.1524 2.982C34.5224 2.562 33.8574 2.261 33.1574 2.079C32.4574 1.883 31.7784 1.785 31.1204 1.785C30.2944 1.785 29.6154 1.89 29.0834 2.1C28.5514 2.31 28.1594 2.59 27.9074 2.94C27.6694 3.29 27.5504 3.682 27.5504 4.116C27.5504 4.634 27.7114 5.047 28.0334 5.355C28.3694 5.663 28.7964 5.908 29.3144 6.09C29.8464 6.272 30.4274 6.44 31.0574 6.594C31.6874 6.734 32.3174 6.895 32.9474 7.077C33.5914 7.259 34.1724 7.497 34.6904 7.791C35.2224 8.085 35.6494 8.477 35.9714 8.967C36.2934 9.457 36.4544 10.087 36.4544 10.857C36.4544 11.599 36.2514 12.292 35.8454 12.936C35.4394 13.566 34.8094 14.077 33.9554 14.469C33.1154 14.847 32.0514 15.036 30.7634 15.036Z" fill="#102045"/>
<path d="M15.2609 9.975V8.23199H20.9099V9.975H15.2609Z" fill="#102045"/>
<path d="M5.04 14.868V1.995H0V0.167999H12.159V1.995H7.119V14.868H5.04Z" fill="#102045"/>
</svg>
